<?xml version="1.0" encoding="UTF-8" standalone="no"?>
<svg width="14px" height="14px" viewBox="0 0 14 14" version="1.1" xmlns="http://www.w3.org/2000/svg" xmlns:xlink="http://www.w3.org/1999/xlink" xmlns:sketch="http://www.bohemiancoding.com/sketch/ns">
    <!-- Generator: Sketch 3.5.1 (25234) - http://www.bohemiancoding.com/sketch -->
    <title>Icon</title>
    <desc>Created with Sketch.</desc>
    <defs></defs>
    <g id="Page-1" stroke="none" stroke-width="1" fill="none" fill-rule="evenodd" sketch:type="MSPage">
        <g id="Icon" sketch:type="MSLayerGroup" fill="#FFFFFF">
            <path d="M0.877603143,13.0532417 L13.0536346,13.0532417 L13.0536346,0.877210216 L0.877603143,0.877210216 L0.877603143,13.0532417 L0.877603143,13.0532417 Z M13.9306483,13.9306483 L0,13.9306483 L0,0 L13.9306483,0 L13.9306483,13.9306483 L13.9306483,13.9306483 Z" id="Shape" sketch:type="MSShapeGroup"></path>
            <path d="M13.1817282,13.8021389 L0.128578861,0.748989509 L0.748993124,0.128575246 L13.8021425,13.1817246 L13.1817282,13.8021389 L13.1817282,13.8021389 Z" id="Rectangle-path" sketch:type="MSShapeGroup"></path>
            <path d="M0.748977937,13.8028755 L0.128336994,13.1823223 L6.65532843,6.65440778 L7.27596937,7.27496096 L0.748977937,13.8028755 L0.748977937,13.8028755 Z" id="Rectangle-path" sketch:type="MSShapeGroup"></path>
            <path d="M13.1814693,7.22053303 L6.68226179,0.721325481 L7.30281497,0.100772299 L13.8020225,6.59997984 L13.1814693,7.22053303 L13.1814693,7.22053303 Z" id="Rectangle-path" sketch:type="MSShapeGroup"></path>
            <path d="M7.24756483,13.7749165 L6.62701165,13.1542756 L13.1824361,6.59977807 L13.8029893,7.22041902 L7.24756483,13.7749165 L7.24756483,13.7749165 Z" id="Rectangle-path" sketch:type="MSShapeGroup"></path>
        </g>
    </g>
</svg>