<?xml version="1.0" encoding="UTF-8" standalone="no"?>
<svg width="82px" height="8px" viewBox="0 0 82 8" version="1.1" xmlns="http://www.w3.org/2000/svg" xmlns:xlink="http://www.w3.org/1999/xlink" xmlns:sketch="http://www.bohemiancoding.com/sketch/ns">
    <!-- Generator: Sketch 3.5.1 (25234) - http://www.bohemiancoding.com/sketch -->
    <title>Text</title>
    <desc>Created with Sketch.</desc>
    <defs></defs>
    <g id="Page-1" stroke="none" stroke-width="1" fill="none" fill-rule="evenodd" sketch:type="MSPage">
        <g id="Text" sketch:type="MSLayerGroup" fill="#FFFFFF">
            <path d="M3.21709234,2.31669941 C3.00687623,2.06247544 2.72632613,1.93064833 2.30530452,1.93064833 L1.38467583,1.93064833 L1.38467583,5.99960707 L2.30530452,5.99960707 C2.72652259,5.99960707 3.00687623,5.86777996 3.21709234,5.61394892 C3.4453831,5.33320236 3.48035363,4.88585462 3.48035363,3.93870334 C3.48035363,2.99194499 3.4453831,2.59724951 3.21709234,2.31669941 M4.06797642,6.49076621 C3.65579568,6.90314342 3.06836935,7.08683694 2.4194499,7.08683694 L0.165815324,7.08683694 L0.165815324,0.843418468 L2.4194499,0.843418468 C3.06836935,0.843418468 3.65579568,1.02770138 4.06797642,1.43968566 C4.76915521,2.14125737 4.69941061,3.00058939 4.69941061,3.93870334 C4.69941061,4.87740668 4.76915521,5.7891945 4.06797642,6.49076621" id="Shape" sketch:type="MSShapeGroup"></path>
            <path d="M9.41611002,7.13948919 C8.46895874,7.13948919 7.75009823,6.93811395 7.13595285,6.31532417 L7.92534381,5.5259332 C8.32023576,5.92082515 8.85481336,6.0524558 9.43359528,6.0524558 C10.1528487,6.0524558 10.5387033,5.7805501 10.5387033,5.2805501 C10.5387033,5.06168959 10.4774067,4.87701375 10.3455796,4.75422397 C10.2229862,4.64047151 10.0825147,4.57878193 9.79312377,4.53536346 L9.03929273,4.42986248 C8.50412574,4.35108055 8.10982318,4.18428291 7.82907662,3.91218075 C7.53104126,3.61414538 7.38172888,3.21100196 7.38172888,2.68467583 C7.38172888,1.57131631 8.20609037,0.790766208 9.55658153,0.790766208 C10.4157171,0.790766208 11.0385069,1.00098232 11.5736739,1.51866405 L10.8015717,2.28113949 C10.4074656,1.9043222 9.93379175,1.85166994 9.521611,1.85166994 C8.87269155,1.85166994 8.556778,2.21119843 8.556778,2.64086444 C8.556778,2.79882122 8.60943026,2.96522593 8.74125737,3.08801572 C8.86404715,3.20196464 9.0654224,3.29842829 9.32003929,3.33339882 L10.0565815,3.43870334 C10.6263261,3.51768173 10.9858546,3.67563851 11.248723,3.92121807 C11.5819253,4.23654224 11.7314342,4.69292731 11.7314342,5.24499018 C11.7312377,6.45559921 10.7225933,7.13948919 9.41611002,7.13948919" id="Shape" sketch:type="MSShapeGroup"></path>
            <path d="M17.0003929,1.93084479 L15.8518664,1.93084479 L15.8518664,3.57937132 L17.0003929,3.57937132 C17.535167,3.57937132 17.8858546,3.23752456 17.8858546,2.75540275 C17.8858546,2.27269155 17.535167,1.93084479 17.0003929,1.93084479 L17.0003929,1.93084479 Z M17.9475442,7.08683694 L16.7282908,4.59685658 L15.8518664,4.59685658 L15.8518664,7.08683694 L14.632613,7.08683694 L14.632613,0.843418468 L17.0791749,0.843418468 C18.3508841,0.843418468 19.1051081,1.71159136 19.1051081,2.75500982 C19.1051081,3.63182711 18.5697446,4.17544204 17.9646365,4.39449902 L19.3591356,7.08683694 L17.9475442,7.08683694 L17.9475442,7.08683694 L17.9475442,7.08683694 Z" id="Shape" sketch:type="MSShapeGroup"></path>
            <rect id="Rectangle-path" sketch:type="MSShapeGroup" x="22.9976424" y="0.194499018" width="0.44675835" height="7.5410609"></rect>
            <path d="M29.6434185,4.10550098 L27.8019646,4.10550098 L27.8019646,6.66640472 L29.6434185,6.66640472 C30.4943026,6.66640472 31.0554028,6.18369352 31.0554028,5.38585462 C31.0554028,4.58801572 30.4943026,4.10550098 29.6434185,4.10550098 M29.5734774,1.26424361 L27.8021611,1.26424361 L27.8021611,3.68447937 L29.5734774,3.68447937 C30.3277014,3.68447937 30.9589391,3.33379175 30.9589391,2.47445972 C30.9589391,1.61532417 30.3277014,1.26424361 29.5734774,1.26424361 M29.6962672,7.08683694 L27.3284872,7.08683694 L27.3284872,0.843418468 L29.6261297,0.843418468 C30.6609037,0.843418468 31.432613,1.43948919 31.432613,2.47445972 C31.432613,3.12337917 31.0644401,3.67583497 30.4589391,3.87760314 C31.1343811,4.10550098 31.5288802,4.66660118 31.5288802,5.38585462 C31.5290766,6.49941061 30.8009823,7.08683694 29.6962672,7.08683694" id="Shape" sketch:type="MSShapeGroup"></path>
            <path d="M37.2799607,1.26444008 L35.4388998,1.26444008 L35.4388998,3.78978389 L37.2799607,3.78978389 C38.0779961,3.78978389 38.656778,3.38664047 38.656778,2.52711198 C38.656778,1.66777996 38.0781925,1.26444008 37.2799607,1.26444008 L37.2799607,1.26444008 Z M38.648723,7.08683694 L37.1575639,4.2108055 L35.4388998,4.2108055 L35.4388998,7.08683694 L34.9656189,7.08683694 L34.9656189,0.843418468 L37.3420432,0.843418468 C38.3595285,0.843418468 39.1306483,1.43064833 39.1306483,2.51827112 C39.1306483,3.44774067 38.5697446,4.05284872 37.6929273,4.2021611 L39.2007859,7.0870334 L38.648723,7.0870334 L38.648723,7.08683694 L38.648723,7.08683694 Z" id="Shape" sketch:type="MSShapeGroup"></path>
            <path d="M44.1544204,1.47485265 L42.8483301,5.14911591 L45.4611002,5.14911591 L44.1544204,1.47485265 L44.1544204,1.47485265 Z M46.153831,7.08722986 L45.6098232,5.56994106 L42.6988212,5.56994106 L42.1546169,7.08722986 L41.6463654,7.08722986 L43.9440079,0.843614931 L44.3652259,0.843614931 L46.6626719,7.08722986 L46.153831,7.08722986 L46.153831,7.08722986 Z" id="Shape" sketch:type="MSShapeGroup"></path>
            <path d="M53.5891945,7.08683694 L49.9852652,1.6589391 L49.9852652,7.08683694 L49.5113949,7.08683694 L49.5113949,0.843614931 L49.9852652,0.843614931 L53.5891945,6.25422397 L53.5891945,0.843614931 L54.0626719,0.843614931 L54.0626719,7.08683694 L53.5891945,7.08683694 Z" id="Shape" sketch:type="MSShapeGroup"></path>
            <path d="M61.0679764,1.74675835 C60.7084479,1.378389 60.2261297,1.26463654 59.7265226,1.26463654 L58.2180747,1.26463654 L58.2180747,6.66640472 L59.7265226,6.66640472 C60.2261297,6.66640472 60.7084479,6.5524558 61.0679764,6.18408644 C61.5675835,5.67563851 61.5328094,4.57053045 61.5328094,3.87760314 C61.5328094,3.18467583 61.5675835,2.25540275 61.0679764,1.74675835 M61.4011788,6.5172888 C61.0330059,6.88546169 60.4888016,7.08683694 59.8404715,7.08683694 L57.7445972,7.08683694 L57.7445972,0.843614931 L59.8404715,0.843614931 C60.489391,0.843614931 61.0330059,1.04499018 61.4011788,1.41355599 C62.0330059,2.04459725 62.0058939,3.03555992 62.0058939,3.87740668 C62.0058939,4.7194499 62.0330059,5.88585462 61.4011788,6.5172888" id="Shape" sketch:type="MSShapeGroup"></path>
            <rect id="Rectangle-path" sketch:type="MSShapeGroup" x="65.4426326" y="0.843418468" width="0.473477407" height="6.24302554"></rect>
            <path d="M73.6760314,7.08683694 L70.0722986,1.6589391 L70.0722986,7.08683694 L69.5990177,7.08683694 L69.5990177,0.843614931 L70.0722986,0.843614931 L73.6760314,6.25422397 L73.6760314,0.843614931 L74.1497053,0.843614931 L74.1497053,7.08683694 L73.6760314,7.08683694 Z" id="Shape" sketch:type="MSShapeGroup"></path>
            <path d="M81.3658153,6.42043222 C80.9532417,6.87642436 80.3573674,7.13948919 79.7261297,7.13948919 C79.1383104,7.13948919 78.5768173,6.91159136 78.1652259,6.49941061 C77.5954813,5.92966601 77.5866405,5.37740668 77.5866405,3.96502947 C77.5866405,2.55343811 77.5954813,2.00078585 78.1652259,1.43104126 C78.5774067,1.01886051 79.1383104,0.790962672 79.7261297,0.790962672 C80.821611,0.790962672 81.6634578,1.51001965 81.8565815,2.61473477 L81.3831041,2.61473477 C81.1988212,1.75540275 80.5681729,1.21178782 79.7261297,1.21178782 C79.2787819,1.21178782 78.8573674,1.37858546 78.5424361,1.69430255 C78.0954813,2.14145383 78.059725,2.62357564 78.059725,3.96522593 C78.059725,5.30726916 78.0954813,5.78939096 78.5424361,6.23654224 C78.8575639,6.55225933 79.2787819,6.71846758 79.7261297,6.71846758 C80.2168959,6.71846758 80.6988212,6.50844794 81.0235756,6.11375246 C81.2956778,5.7805501 81.4007859,5.41237721 81.4007859,4.87740668 L81.4007859,4.31650295 L79.7263261,4.31650295 L79.7263261,3.89528487 L81.8748527,3.89528487 L81.8748527,4.91257367 C81.8742633,5.56129666 81.7341847,6.02612967 81.3658153,6.42043222" id="Shape" sketch:type="MSShapeGroup"></path>
        </g>
    </g>
</svg>