<?xml version="1.0" encoding="UTF-8" standalone="no"?>
<svg width="100px" height="14px" viewBox="0 0 100 14" version="1.1" xmlns="http://www.w3.org/2000/svg" xmlns:xlink="http://www.w3.org/1999/xlink" xmlns:sketch="http://www.bohemiancoding.com/sketch/ns">
    <!-- Generator: Sketch 3.5.1 (25234) - http://www.bohemiancoding.com/sketch -->
    <title>Logo</title>
    <desc>Created with Sketch.</desc>
    <defs></defs>
    <g id="Page-1" stroke="none" stroke-width="1" fill="none" fill-rule="evenodd" sketch:type="MSPage">
        <g id="Logo" sketch:type="MSLayerGroup" fill="#FFFFFF">
            <path d="M21.2170923,5.31669941 C21.0068762,5.06247544 20.7263261,4.93064833 20.3053045,4.93064833 L19.3846758,4.93064833 L19.3846758,8.99960707 L20.3053045,8.99960707 C20.7265226,8.99960707 21.0068762,8.86777996 21.2170923,8.61394892 C21.4453831,8.33320236 21.4803536,7.88585462 21.4803536,6.93870334 C21.4803536,5.99194499 21.4453831,5.59724951 21.2170923,5.31669941 M22.0679764,9.49076621 C21.6557957,9.90314342 21.0683694,10.0868369 20.4194499,10.0868369 L18.1658153,10.0868369 L18.1658153,3.84341847 L20.4194499,3.84341847 C21.0683694,3.84341847 21.6557957,4.02770138 22.0679764,4.43968566 C22.7691552,5.14125737 22.6994106,6.00058939 22.6994106,6.93870334 C22.6994106,7.87740668 22.7691552,8.7891945 22.0679764,9.49076621" id="Shape" sketch:type="MSShapeGroup"></path>
            <path d="M27.41611,10.1394892 C26.4689587,10.1394892 25.7500982,9.93811395 25.1359528,9.31532417 L25.9253438,8.5259332 C26.3202358,8.92082515 26.8548134,9.0524558 27.4335953,9.0524558 C28.1528487,9.0524558 28.5387033,8.7805501 28.5387033,8.2805501 C28.5387033,8.06168959 28.4774067,7.87701375 28.3455796,7.75422397 C28.2229862,7.64047151 28.0825147,7.57878193 27.7931238,7.53536346 L27.0392927,7.42986248 C26.5041257,7.35108055 26.1098232,7.18428291 25.8290766,6.91218075 C25.5310413,6.61414538 25.3817289,6.21100196 25.3817289,5.68467583 C25.3817289,4.57131631 26.2060904,3.79076621 27.5565815,3.79076621 C28.4157171,3.79076621 29.0385069,4.00098232 29.5736739,4.51866405 L28.8015717,5.28113949 C28.4074656,4.9043222 27.9337917,4.85166994 27.521611,4.85166994 C26.8726916,4.85166994 26.556778,5.21119843 26.556778,5.64086444 C26.556778,5.79882122 26.6094303,5.96522593 26.7412574,6.08801572 C26.8640472,6.20196464 27.0654224,6.29842829 27.3200393,6.33339882 L28.0565815,6.43870334 C28.6263261,6.51768173 28.9858546,6.67563851 29.248723,6.92121807 C29.5819253,7.23654224 29.7314342,7.69292731 29.7314342,8.24499018 C29.7312377,9.45559921 28.7225933,10.1394892 27.41611,10.1394892" id="Shape" sketch:type="MSShapeGroup"></path>
            <path d="M35.0003929,4.93084479 L33.8518664,4.93084479 L33.8518664,6.57937132 L35.0003929,6.57937132 C35.535167,6.57937132 35.8858546,6.23752456 35.8858546,5.75540275 C35.8858546,5.27269155 35.535167,4.93084479 35.0003929,4.93084479 L35.0003929,4.93084479 Z M35.9475442,10.0868369 L34.7282908,7.59685658 L33.8518664,7.59685658 L33.8518664,10.0868369 L32.632613,10.0868369 L32.632613,3.84341847 L35.0791749,3.84341847 C36.3508841,3.84341847 37.1051081,4.71159136 37.1051081,5.75500982 C37.1051081,6.63182711 36.5697446,7.17544204 35.9646365,7.39449902 L37.3591356,10.0868369 L35.9475442,10.0868369 L35.9475442,10.0868369 L35.9475442,10.0868369 Z" id="Shape" sketch:type="MSShapeGroup"></path>
            <rect id="Rectangle-path" sketch:type="MSShapeGroup" x="40.9976424" y="3.19449902" width="0.44675835" height="7.5410609"></rect>
            <path d="M47.6434185,7.10550098 L45.8019646,7.10550098 L45.8019646,9.66640472 L47.6434185,9.66640472 C48.4943026,9.66640472 49.0554028,9.18369352 49.0554028,8.38585462 C49.0554028,7.58801572 48.4943026,7.10550098 47.6434185,7.10550098 M47.5734774,4.26424361 L45.8021611,4.26424361 L45.8021611,6.68447937 L47.5734774,6.68447937 C48.3277014,6.68447937 48.9589391,6.33379175 48.9589391,5.47445972 C48.9589391,4.61532417 48.3277014,4.26424361 47.5734774,4.26424361 M47.6962672,10.0868369 L45.3284872,10.0868369 L45.3284872,3.84341847 L47.6261297,3.84341847 C48.6609037,3.84341847 49.432613,4.43948919 49.432613,5.47445972 C49.432613,6.12337917 49.0644401,6.67583497 48.4589391,6.87760314 C49.1343811,7.10550098 49.5288802,7.66660118 49.5288802,8.38585462 C49.5290766,9.49941061 48.8009823,10.0868369 47.6962672,10.0868369" id="Shape" sketch:type="MSShapeGroup"></path>
            <path d="M55.2799607,4.26444008 L53.4388998,4.26444008 L53.4388998,6.78978389 L55.2799607,6.78978389 C56.0779961,6.78978389 56.656778,6.38664047 56.656778,5.52711198 C56.656778,4.66777996 56.0781925,4.26444008 55.2799607,4.26444008 L55.2799607,4.26444008 Z M56.648723,10.0868369 L55.1575639,7.2108055 L53.4388998,7.2108055 L53.4388998,10.0868369 L52.9656189,10.0868369 L52.9656189,3.84341847 L55.3420432,3.84341847 C56.3595285,3.84341847 57.1306483,4.43064833 57.1306483,5.51827112 C57.1306483,6.44774067 56.5697446,7.05284872 55.6929273,7.2021611 L57.2007859,10.0870334 L56.648723,10.0870334 L56.648723,10.0868369 L56.648723,10.0868369 Z" id="Shape" sketch:type="MSShapeGroup"></path>
            <path d="M62.1544204,4.47485265 L60.8483301,8.14911591 L63.4611002,8.14911591 L62.1544204,4.47485265 L62.1544204,4.47485265 Z M64.153831,10.0872299 L63.6098232,8.56994106 L60.6988212,8.56994106 L60.1546169,10.0872299 L59.6463654,10.0872299 L61.9440079,3.84361493 L62.3652259,3.84361493 L64.6626719,10.0872299 L64.153831,10.0872299 L64.153831,10.0872299 Z" id="Shape" sketch:type="MSShapeGroup"></path>
            <path d="M71.5891945,10.0868369 L67.9852652,4.6589391 L67.9852652,10.0868369 L67.5113949,10.0868369 L67.5113949,3.84361493 L67.9852652,3.84361493 L71.5891945,9.25422397 L71.5891945,3.84361493 L72.0626719,3.84361493 L72.0626719,10.0868369 L71.5891945,10.0868369 Z" id="Shape" sketch:type="MSShapeGroup"></path>
            <path d="M79.0679764,4.74675835 C78.7084479,4.378389 78.2261297,4.26463654 77.7265226,4.26463654 L76.2180747,4.26463654 L76.2180747,9.66640472 L77.7265226,9.66640472 C78.2261297,9.66640472 78.7084479,9.5524558 79.0679764,9.18408644 C79.5675835,8.67563851 79.5328094,7.57053045 79.5328094,6.87760314 C79.5328094,6.18467583 79.5675835,5.25540275 79.0679764,4.74675835 M79.4011788,9.5172888 C79.0330059,9.88546169 78.4888016,10.0868369 77.8404715,10.0868369 L75.7445972,10.0868369 L75.7445972,3.84361493 L77.8404715,3.84361493 C78.489391,3.84361493 79.0330059,4.04499018 79.4011788,4.41355599 C80.0330059,5.04459725 80.0058939,6.03555992 80.0058939,6.87740668 C80.0058939,7.7194499 80.0330059,8.88585462 79.4011788,9.5172888" id="Shape" sketch:type="MSShapeGroup"></path>
            <rect id="Rectangle-path" sketch:type="MSShapeGroup" x="83.4426326" y="3.84341847" width="0.473477407" height="6.24302554"></rect>
            <path d="M91.6760314,10.0868369 L88.0722986,4.6589391 L88.0722986,10.0868369 L87.5990177,10.0868369 L87.5990177,3.84361493 L88.0722986,3.84361493 L91.6760314,9.25422397 L91.6760314,3.84361493 L92.1497053,3.84361493 L92.1497053,10.0868369 L91.6760314,10.0868369 Z" id="Shape" sketch:type="MSShapeGroup"></path>
            <path d="M99.3658153,9.42043222 C98.9532417,9.87642436 98.3573674,10.1394892 97.7261297,10.1394892 C97.1383104,10.1394892 96.5768173,9.91159136 96.1652259,9.49941061 C95.5954813,8.92966601 95.5866405,8.37740668 95.5866405,6.96502947 C95.5866405,5.55343811 95.5954813,5.00078585 96.1652259,4.43104126 C96.5774067,4.01886051 97.1383104,3.79096267 97.7261297,3.79096267 C98.821611,3.79096267 99.6634578,4.51001965 99.8565815,5.61473477 L99.3831041,5.61473477 C99.1988212,4.75540275 98.5681729,4.21178782 97.7261297,4.21178782 C97.2787819,4.21178782 96.8573674,4.37858546 96.5424361,4.69430255 C96.0954813,5.14145383 96.059725,5.62357564 96.059725,6.96522593 C96.059725,8.30726916 96.0954813,8.78939096 96.5424361,9.23654224 C96.8575639,9.55225933 97.2787819,9.71846758 97.7261297,9.71846758 C98.2168959,9.71846758 98.6988212,9.50844794 99.0235756,9.11375246 C99.2956778,8.7805501 99.4007859,8.41237721 99.4007859,7.87740668 L99.4007859,7.31650295 L97.7263261,7.31650295 L97.7263261,6.89528487 L99.8748527,6.89528487 L99.8748527,7.91257367 C99.8742633,8.56129666 99.7341847,9.02612967 99.3658153,9.42043222" id="Shape" sketch:type="MSShapeGroup"></path>
            <path d="M0.877603143,13.0532417 L13.0536346,13.0532417 L13.0536346,0.877210216 L0.877603143,0.877210216 L0.877603143,13.0532417 L0.877603143,13.0532417 Z M13.9306483,13.9306483 L0,13.9306483 L0,0 L13.9306483,0 L13.9306483,13.9306483 L13.9306483,13.9306483 Z" id="Shape" sketch:type="MSShapeGroup"></path>
            <path d="M13.1817282,13.8021389 L0.128578861,0.748989509 L0.748993124,0.128575246 L13.8021425,13.1817246 L13.1817282,13.8021389 L13.1817282,13.8021389 Z" id="Rectangle-path" sketch:type="MSShapeGroup"></path>
            <path d="M0.748977937,13.8028755 L0.128336994,13.1823223 L6.65532843,6.65440778 L7.27596937,7.27496096 L0.748977937,13.8028755 L0.748977937,13.8028755 Z" id="Rectangle-path" sketch:type="MSShapeGroup"></path>
            <path d="M13.1814693,7.22053303 L6.68226179,0.721325481 L7.30281497,0.100772299 L13.8020225,6.59997984 L13.1814693,7.22053303 L13.1814693,7.22053303 Z" id="Rectangle-path" sketch:type="MSShapeGroup"></path>
            <path d="M7.24756483,13.7749165 L6.62701165,13.1542756 L13.1824361,6.59977807 L13.8029893,7.22041902 L7.24756483,13.7749165 L7.24756483,13.7749165 Z" id="Rectangle-path" sketch:type="MSShapeGroup"></path>
        </g>
    </g>
</svg>